<svg width="112" height="44" viewBox="0 0 112 44" fill="none" xmlns="http://www.w3.org/2000/svg">
<path d="M19.0667 14.8163C20.024 14.8163 20.8 14.0123 20.8 13.0204C20.8 12.0286 20.024 11.2245 19.0667 11.2245C18.1094 11.2245 17.3333 12.0286 17.3333 13.0204C17.3333 14.0123 18.1094 14.8163 19.0667 14.8163Z" fill="#F8B500"/>
<path d="M6.93333 14.8163C7.89063 14.8163 8.66667 14.0123 8.66667 13.0204C8.66667 12.0286 7.89063 11.2245 6.93333 11.2245C5.97604 11.2245 5.2 12.0286 5.2 13.0204C5.2 14.0123 5.97604 14.8163 6.93333 14.8163Z" fill="#F8B500"/>
<path d="M15.1667 28.2857C15.1667 26.8041 16.3367 25.5918 17.7667 25.5918V30.0816C17.7667 34.7959 21.45 38.6122 26 38.6122V4.04082C26 4.04082 21.6667 0 12.9567 0C4.29 0 0 4.04082 0 4.04082V25.1429C0 35.5592 8.14667 44 18.2 44H26V41.3061C20.02 41.3061 15.1667 36.2775 15.1667 30.0816V28.2857ZM12.9567 22.449C6.54333 22.449 2.6 18.8571 2.6 16.6122V5.83673C12.5667 5.83673 12.5667 17.0612 13 18.4082C13.4333 17.0612 13.4333 5.83673 23.4 5.83673V16.6122C23.4 18.4531 19.4133 22.449 12.9567 22.449Z" fill="#F8B500"/>
<path d="M52.5132 28.1436V31H43.0527V28.1436H52.5132ZM44.249 13.2266V31H40.5869V13.2266H44.249ZM51.2803 20.4653V23.2485H43.0527V20.4653H51.2803ZM52.501 13.2266V16.0952H43.0527V13.2266H52.501Z" fill="#00001C"/>
<path d="M58.1406 12.25V31H54.6128V12.25H58.1406Z" fill="#00001C"/>
<path d="M67.125 31.2441C66.0996 31.2441 65.18 31.0814 64.3662 30.7559C63.5524 30.4222 62.8607 29.9624 62.291 29.3765C61.7295 28.7905 61.2982 28.111 60.9971 27.3379C60.696 26.5566 60.5454 25.7266 60.5454 24.8477V24.3594C60.5454 23.3584 60.6878 22.4429 60.9727 21.6128C61.2575 20.7827 61.6644 20.0625 62.1934 19.4521C62.7305 18.8418 63.3815 18.3739 64.1465 18.0483C64.9115 17.7147 65.7741 17.5479 66.7344 17.5479C67.6702 17.5479 68.5003 17.7025 69.2246 18.0117C69.9489 18.321 70.5552 18.7604 71.0435 19.3301C71.5399 19.8997 71.9142 20.5833 72.1665 21.3809C72.4188 22.1702 72.5449 23.0492 72.5449 24.0176V25.4824H62.0469V23.1387H69.0903V22.8701C69.0903 22.3818 69.0008 21.9465 68.8218 21.564C68.6509 21.1733 68.3905 20.8641 68.0405 20.6362C67.6906 20.4084 67.243 20.2944 66.6978 20.2944C66.2339 20.2944 65.8351 20.3962 65.5015 20.5996C65.1678 20.8031 64.8952 21.0879 64.6836 21.4541C64.4801 21.8203 64.3255 22.2516 64.2197 22.748C64.1221 23.2363 64.0732 23.7734 64.0732 24.3594V24.8477C64.0732 25.3766 64.1465 25.8649 64.293 26.3125C64.4476 26.7601 64.6632 27.1466 64.9399 27.4722C65.2248 27.7977 65.5666 28.05 65.9653 28.229C66.3722 28.408 66.832 28.4976 67.3447 28.4976C67.9795 28.4976 68.5695 28.3755 69.1147 28.1313C69.6681 27.8791 70.1442 27.5007 70.543 26.9961L72.252 28.8516C71.9753 29.2503 71.5968 29.6328 71.1167 29.999C70.6447 30.3652 70.075 30.6663 69.4077 30.9023C68.7404 31.1302 67.9795 31.2441 67.125 31.2441Z" fill="#00001C"/>
<path d="M78.8682 28.4365L81.7979 17.792H85.4722L81.0166 31H78.7949L78.8682 28.4365ZM76.854 17.792L79.7959 28.4487L79.8569 31H77.623L73.1675 17.792H76.854Z" fill="#00001C"/>
<path d="M91.5391 28.4365L94.4688 17.792H98.1431L93.6875 31H91.4658L91.5391 28.4365ZM89.5249 17.792L92.4668 28.4487L92.5278 31H90.2939L85.8384 17.792H89.5249Z" fill="#00001C"/>
<path d="M98.9609 24.5303V24.2739C98.9609 23.3055 99.0993 22.4144 99.376 21.6006C99.6527 20.7786 100.056 20.0666 100.584 19.4644C101.113 18.8621 101.764 18.3942 102.538 18.0605C103.311 17.7188 104.198 17.5479 105.199 17.5479C106.2 17.5479 107.091 17.7188 107.872 18.0605C108.653 18.3942 109.308 18.8621 109.837 19.4644C110.375 20.0666 110.781 20.7786 111.058 21.6006C111.335 22.4144 111.473 23.3055 111.473 24.2739V24.5303C111.473 25.4906 111.335 26.3817 111.058 27.2036C110.781 28.0174 110.375 28.7295 109.837 29.3398C109.308 29.9421 108.657 30.41 107.884 30.7437C107.111 31.0773 106.224 31.2441 105.223 31.2441C104.222 31.2441 103.331 31.0773 102.55 30.7437C101.777 30.41 101.122 29.9421 100.584 29.3398C100.056 28.7295 99.6527 28.0174 99.376 27.2036C99.0993 26.3817 98.9609 25.4906 98.9609 24.5303ZM102.477 24.2739V24.5303C102.477 25.0837 102.525 25.6004 102.623 26.0806C102.721 26.5607 102.875 26.9839 103.087 27.3501C103.307 27.7082 103.591 27.9889 103.941 28.1924C104.291 28.3958 104.719 28.4976 105.223 28.4976C105.711 28.4976 106.131 28.3958 106.48 28.1924C106.83 27.9889 107.111 27.7082 107.323 27.3501C107.534 26.9839 107.689 26.5607 107.787 26.0806C107.892 25.6004 107.945 25.0837 107.945 24.5303V24.2739C107.945 23.7368 107.892 23.2323 107.787 22.7603C107.689 22.2801 107.53 21.8569 107.311 21.4907C107.099 21.1164 106.818 20.8234 106.468 20.6118C106.118 20.4002 105.695 20.2944 105.199 20.2944C104.702 20.2944 104.279 20.4002 103.929 20.6118C103.587 20.8234 103.307 21.1164 103.087 21.4907C102.875 21.8569 102.721 22.2801 102.623 22.7603C102.525 23.2323 102.477 23.7368 102.477 24.2739Z" fill="#00001C"/>
</svg>
